<svg width="51" height="51" viewBox="0 0 51 51" fill="none" xmlns="http://www.w3.org/2000/svg">
<path d="M15.9864 15.3147L15.4547 14.6083L16.0191 14.1421L12.9489 8.64086L12.2851 8.92886L11.8407 8.13248L14.0622 6.89272L14.6055 7.62014L14.0248 8.08165L15.247 10.2717L17.961 8.75706L16.7212 6.53559L16.0889 6.80606L15.6444 6.00968L17.8764 4.76407L18.4302 5.48564L17.7971 5.97639L20.8615 11.4672L21.5998 11.165L22.0221 11.9463L19.7901 13.1919L19.2689 12.4796L19.7914 12.0369L18.4581 9.64774L15.7441 11.1624L17.0891 13.5724L17.7751 13.2995L18.2079 14.075L15.9864 15.3147Z" fill="white"/>
<path d="M12.8253 20.8245L12.0813 20.5138L12.487 19.1855L6.95598 16.3753L6.27652 17.7126L7.1128 18.6893L6.77579 19.3526L4.90005 18.1169L7.68309 12.6394L9.78186 13.4096L9.45029 14.0622L8.17356 13.9789L7.49954 15.3055L13.0306 18.1157L13.8696 16.9941L14.5592 17.4118L12.8253 20.8245Z" fill="white"/>
<path d="M12.6026 29.5381L11.8618 29.7551L11.5928 29.1149L4.10659 27.3785L4.00402 26.1227L11.1083 23.1827L11.2777 22.603L12.0419 22.673L12.2636 25.3879L11.546 25.4465L11.2157 24.4983L9.4886 25.1691L9.69275 27.6688L11.5427 28.0595L11.6601 26.9904L12.3896 26.9308L12.6026 29.5381ZM8.65172 27.4528L8.50422 25.6468L5.38118 26.7687L8.65172 27.4528Z" fill="white"/>
<path d="M14.6958 32.4905C14.9256 32.8276 15.1145 33.1829 15.2626 33.5564C15.4061 33.9233 15.5096 34.2739 15.5729 34.6083L13.8038 35.7415L13.3569 35.0005L14.2832 34.1223C14.2508 33.9895 14.2003 33.8302 14.1318 33.6446C14.0634 33.4589 13.9706 33.2801 13.8534 33.1082C13.7047 32.8901 13.532 32.7077 13.3352 32.561C13.1273 32.4123 12.9101 32.328 12.6836 32.3081C12.4526 32.2816 12.2247 32.345 11.9999 32.4982C11.8214 32.6198 11.6942 32.7598 11.6181 32.9181C11.5421 33.0764 11.4997 33.2699 11.4909 33.4986C11.4822 33.7272 11.5062 34.011 11.5629 34.3499C11.613 34.6933 11.6619 35.0279 11.7097 35.3535C11.7574 35.6792 11.7728 35.9931 11.7559 36.295C11.7345 36.5903 11.6586 36.8696 11.5282 37.1328C11.3866 37.3938 11.1605 37.6302 10.8498 37.842C10.4862 38.0898 10.1069 38.208 9.71181 38.1965C9.30561 38.1829 8.91716 38.0604 8.54644 37.829C8.17123 37.591 7.8507 37.277 7.58487 36.8869C7.37311 36.5762 7.19785 36.2552 7.0591 35.9238C6.91374 35.5969 6.79842 35.2785 6.71314 34.9687L8.33397 33.6607L8.80706 34.3548L8.06686 35.5274C8.1059 35.6556 8.16161 35.7871 8.23399 35.9217C8.29977 36.0608 8.37546 36.1932 8.46107 36.3188C8.60525 36.5303 8.77227 36.6973 8.96213 36.8196C9.14087 36.9398 9.33014 37.0044 9.52994 37.0135C9.71862 37.0204 9.8989 36.9653 10.0708 36.8481C10.2426 36.731 10.3598 36.5834 10.4224 36.4052C10.4849 36.227 10.5129 36.0337 10.5063 35.8252C10.4952 35.6101 10.4685 35.3862 10.4262 35.1537C10.3772 34.9256 10.3361 34.702 10.3028 34.4826C10.2176 33.9598 10.1953 33.5152 10.2359 33.1486C10.2654 32.78 10.3565 32.4662 10.5091 32.2072C10.6618 31.9483 10.877 31.7242 11.1546 31.5349C11.4917 31.3051 11.831 31.1708 12.1723 31.1318C12.5025 31.0906 12.8246 31.1228 13.1385 31.2284C13.4458 31.3384 13.7338 31.5052 14.0024 31.7287C14.2709 31.9523 14.5021 32.2062 14.6958 32.4905Z" fill="white"/>
<path d="M22.6739 38.2194L22.4812 38.9669L21.7935 38.8704L16.4704 44.4132L15.339 43.8585L16.4491 36.2505L16.0377 35.8083L16.489 35.1876L18.935 36.3866L18.6181 37.0331L17.6344 36.8315L17.3267 38.6586L19.5787 39.7626L20.8612 38.3732L20.0027 37.7252L20.3249 37.068L22.6739 38.2194ZM18.8604 40.5464L17.2333 39.7488L16.5989 43.0061L18.8604 40.5464Z" fill="white"/>
<path d="M29.321 37.6926L29.4969 38.5317L28.7589 38.7583L29.3525 45.0302L30.1 45.0318L30.186 45.9398L27.6652 46.1783C26.9643 46.2447 26.3572 46.1977 25.8438 46.0373C25.3312 45.885 24.929 45.6257 24.6372 45.2596C24.3374 44.8942 24.1615 44.4367 24.1095 43.8872C24.0515 43.2739 24.1629 42.7531 24.4438 42.3247C24.7254 41.9043 25.116 41.5741 25.6156 41.3339L24.2647 39.1595L23.4866 39.0885L23.4074 38.2523L25.1397 38.0883L26.7604 40.9483C26.903 40.9268 27.0496 40.9049 27.2001 40.8826C27.3507 40.8603 27.5256 40.8398 27.7247 40.8209L27.5392 38.8617L26.7599 38.7787L26.6808 37.9425L29.321 37.6926ZM27.8242 41.8722L27.3105 41.9208C26.8724 41.9623 26.5034 42.0535 26.2033 42.1944C25.904 42.3432 25.682 42.545 25.5374 42.7998C25.3856 43.0633 25.327 43.3782 25.3616 43.7446C25.3948 44.095 25.498 44.3786 25.6712 44.5952C25.8451 44.8198 26.0966 44.9728 26.4258 45.0541C26.7477 45.1442 27.1516 45.1662 27.6374 45.1203L28.1272 45.0739L27.8242 41.8722Z" fill="white"/>
<path d="M35.0239 34.0187L35.6191 34.6401L35.1037 35.2181L38.7773 40.3214L39.4232 39.9452L39.956 40.6854L37.9205 42.1506C37.4336 42.5011 36.9783 42.7451 36.5547 42.8824C36.1247 43.0244 35.7301 43.0719 35.3709 43.0249C35.0165 42.9843 34.697 42.8692 34.4127 42.6796C34.1284 42.49 33.881 42.2492 33.6707 41.957C33.3248 41.4765 33.1431 40.9913 33.1255 40.5012C33.1014 40.0159 33.2299 39.5439 33.5109 39.0853C33.7854 38.6314 34.1856 38.2151 34.7116 37.8366L35.218 37.472L34.1383 35.9722L32.5692 36.7912L32.1217 36.1079L35.0239 34.0187ZM35.8279 38.3193L35.5357 38.5296C35.0228 38.8989 34.6809 39.2386 34.51 39.5489C34.3391 39.8593 34.283 40.151 34.3416 40.4242C34.3985 40.7086 34.518 40.9774 34.7003 41.2306C34.9994 41.6461 35.3648 41.8661 35.7964 41.8906C36.228 41.915 36.6873 41.752 37.1742 41.4014L37.7489 40.9878L35.8279 38.3193Z" fill="white"/>
<path d="M38.0213 27.8743L38.8873 28.0448L38.7807 28.7929L44.7665 30.7576L45.0669 30.0731L45.9334 30.3575L45.1102 32.8659L44.2214 32.6878L44.3506 31.9093L38.3762 29.9484L38.038 30.6709L37.198 30.3826L38.0213 27.8743Z" fill="white"/>
<path d="M37.9165 20.8635L38.7541 20.6804L38.987 21.4163L45.2536 20.7684L45.2487 20.021L46.1559 19.9272L46.4163 22.4458C46.4887 23.146 46.447 23.7536 46.2911 24.2683C46.1431 24.7823 45.8874 25.1867 45.5238 25.4817C45.161 25.7846 44.7051 25.9644 44.156 26.0212C43.5433 26.0845 43.0215 25.9776 42.5907 25.7004C42.1679 25.4224 41.8342 25.0347 41.5898 24.5372L39.4272 25.9069L39.3629 26.6856L38.5274 26.772L38.3484 25.0412L41.1943 23.3958C41.1715 23.2534 41.1484 23.107 41.1248 22.9566C41.1012 22.8063 41.0791 22.6316 41.0585 22.4327L39.101 22.6351L39.0248 23.415L38.1892 23.5014L37.9165 20.8635ZM42.1089 22.3241L42.162 22.8373C42.2073 23.275 42.3016 23.6433 42.4451 23.9421C42.5966 24.2401 42.8003 24.4603 43.0563 24.6027C43.3211 24.7523 43.6365 24.8082 44.0026 24.7703C44.3527 24.7341 44.6353 24.6285 44.8505 24.4534C45.0736 24.2776 45.2244 24.0247 45.3029 23.6949C45.3901 23.3722 45.4087 22.9682 45.3585 22.4827L45.3079 21.9934L42.1089 22.3241Z" fill="white"/>
<path d="M33.4896 14.3582L33.9952 13.7749L34.5679 14.1678L41.8032 11.5777L42.5689 12.5784L38.1849 18.8946L38.3561 19.4738L37.6755 19.8284L36.0201 17.6651L36.5919 17.2275L37.3827 17.8463L38.4723 16.3477L36.9482 14.356L35.181 15.0283L35.6607 15.9909L35.0794 16.4357L33.4896 14.3582ZM37.9405 13.9744L39.0417 15.4134L41.0611 12.7801L37.9405 13.9744Z" fill="white"/>
<path d="M26.1436 11.6121L26.3046 10.7427L27.0297 10.8434L29.0069 4.86168L28.3459 4.56735L28.6321 3.70142L31.0476 4.49985L30.8791 5.39204L30.1464 5.27624L29.3593 7.65752L32.3102 8.63295L33.1086 6.21749L32.4818 5.93446L32.768 5.06854L35.1949 5.87073L35.0378 6.76668L34.2481 6.63205L32.2746 12.6023L32.9965 12.9421L32.7064 13.7814L30.2796 12.9792L30.4519 12.1136L31.1314 12.1992L31.9901 9.60142L29.0391 8.62598L28.1729 11.2465L28.8378 11.5674L28.5591 12.4105L26.1436 11.6121Z" fill="white"/>
</svg>
